<svg width="1363" height="163" viewBox="0 0 1363 163" fill="none" xmlns="http://www.w3.org/2000/svg">
<path d="M0 15C0 6.71573 6.71573 0 15 0H37V163H15C6.71573 163 0 156.284 0 148V15Z" fill="#660066"/>
<rect width="1097" height="163" transform="translate(37)" fill="#F0F0F0"/>
<path d="M101.906 53.9219L94.3945 51.2383V48.0859L104.602 52.375V54.6367L101.906 53.9219ZM94.3945 56.1719L101.918 53.4297L104.602 52.7852V55.0352L94.3945 59.3242V56.1719ZM114.504 43.9375H117.48L121.863 56.4648L126.246 43.9375H129.223L123.059 61H120.668L114.504 43.9375ZM112.898 43.9375H115.863L116.402 56.1484V61H112.898V43.9375ZM127.863 43.9375H130.84V61H127.324V56.1484L127.863 43.9375ZM137.473 59.5703L140.836 48.3203H144.457L139.359 62.9102C139.25 63.2305 139.102 63.5742 138.914 63.9414C138.734 64.3086 138.488 64.6562 138.176 64.9844C137.871 65.3203 137.484 65.5938 137.016 65.8047C136.555 66.0156 135.988 66.1211 135.316 66.1211C134.996 66.1211 134.734 66.1016 134.531 66.0625C134.328 66.0234 134.086 65.9688 133.805 65.8984V63.4258C133.891 63.4258 133.98 63.4258 134.074 63.4258C134.168 63.4336 134.258 63.4375 134.344 63.4375C134.789 63.4375 135.152 63.3867 135.434 63.2852C135.715 63.1836 135.941 63.0273 136.113 62.8164C136.285 62.6133 136.422 62.3477 136.523 62.0195L137.473 59.5703ZM136.066 48.3203L138.82 57.5078L139.301 61.082L137.004 61.3281L132.445 48.3203H136.066ZM153.645 43.9375V61H150.141V43.9375H153.645ZM158.895 43.9375V46.6914H144.973V43.9375H158.895ZM164.25 48.3203V61H160.863V48.3203H164.25ZM160.652 45.0156C160.652 44.5234 160.824 44.1172 161.168 43.7969C161.512 43.4766 161.973 43.3164 162.551 43.3164C163.121 43.3164 163.578 43.4766 163.922 43.7969C164.273 44.1172 164.449 44.5234 164.449 45.0156C164.449 45.5078 164.273 45.9141 163.922 46.2344C163.578 46.5547 163.121 46.7148 162.551 46.7148C161.973 46.7148 161.512 46.5547 161.168 46.2344C160.824 45.9141 160.652 45.5078 160.652 45.0156ZM170.414 50.9453V61H167.027V48.3203H170.203L170.414 50.9453ZM169.945 54.2148H169.008C169.008 53.332 169.113 52.5195 169.324 51.7773C169.543 51.0273 169.859 50.3789 170.273 49.832C170.695 49.2773 171.215 48.8477 171.832 48.543C172.449 48.2383 173.164 48.0859 173.977 48.0859C174.539 48.0859 175.055 48.1719 175.523 48.3438C175.992 48.5078 176.395 48.7695 176.73 49.1289C177.074 49.4805 177.34 49.9414 177.527 50.5117C177.715 51.0742 177.809 51.75 177.809 52.5391V61H174.434V52.9141C174.434 52.3359 174.355 51.8906 174.199 51.5781C174.043 51.2656 173.82 51.0469 173.531 50.9219C173.25 50.7969 172.91 50.7344 172.512 50.7344C172.074 50.7344 171.691 50.8242 171.363 51.0039C171.043 51.1836 170.777 51.4336 170.566 51.7539C170.355 52.0664 170.199 52.4336 170.098 52.8555C169.996 53.2773 169.945 53.7305 169.945 54.2148ZM177.492 53.8281L176.285 53.9805C176.285 53.1523 176.387 52.3828 176.59 51.6719C176.801 50.9609 177.109 50.3359 177.516 49.7969C177.93 49.2578 178.441 48.8398 179.051 48.543C179.66 48.2383 180.363 48.0859 181.16 48.0859C181.77 48.0859 182.324 48.1758 182.824 48.3555C183.324 48.5273 183.75 48.8047 184.102 49.1875C184.461 49.5625 184.734 50.0547 184.922 50.6641C185.117 51.2734 185.215 52.0195 185.215 52.9023V61H181.828V52.9023C181.828 52.3164 181.75 51.8711 181.594 51.5664C181.445 51.2539 181.227 51.0391 180.938 50.9219C180.656 50.7969 180.32 50.7344 179.93 50.7344C179.523 50.7344 179.168 50.8164 178.863 50.9805C178.559 51.1367 178.305 51.3555 178.102 51.6367C177.898 51.918 177.746 52.2461 177.645 52.6211C177.543 52.9883 177.492 53.3906 177.492 53.8281ZM193.664 61.2344C192.68 61.2344 191.797 61.0781 191.016 60.7656C190.234 60.4453 189.57 60.0039 189.023 59.4414C188.484 58.8789 188.07 58.2266 187.781 57.4844C187.492 56.7344 187.348 55.9375 187.348 55.0938V54.625C187.348 53.6641 187.484 52.7852 187.758 51.9883C188.031 51.1914 188.422 50.5 188.93 49.9141C189.445 49.3281 190.07 48.8789 190.805 48.5664C191.539 48.2461 192.367 48.0859 193.289 48.0859C194.188 48.0859 194.984 48.2344 195.68 48.5312C196.375 48.8281 196.957 49.25 197.426 49.7969C197.902 50.3438 198.262 51 198.504 51.7656C198.746 52.5234 198.867 53.3672 198.867 54.2969V55.7031H188.789V53.4531H195.551V53.1953C195.551 52.7266 195.465 52.3086 195.293 51.9414C195.129 51.5664 194.879 51.2695 194.543 51.0508C194.207 50.832 193.777 50.7227 193.254 50.7227C192.809 50.7227 192.426 50.8203 192.105 51.0156C191.785 51.2109 191.523 51.4844 191.32 51.8359C191.125 52.1875 190.977 52.6016 190.875 53.0781C190.781 53.5469 190.734 54.0625 190.734 54.625V55.0938C190.734 55.6016 190.805 56.0703 190.945 56.5C191.094 56.9297 191.301 57.3008 191.566 57.6133C191.84 57.9258 192.168 58.168 192.551 58.3398C192.941 58.5117 193.383 58.5977 193.875 58.5977C194.484 58.5977 195.051 58.4805 195.574 58.2461C196.105 58.0039 196.562 57.6406 196.945 57.1562L198.586 58.9375C198.32 59.3203 197.957 59.6875 197.496 60.0391C197.043 60.3906 196.496 60.6797 195.855 60.9062C195.215 61.125 194.484 61.2344 193.664 61.2344ZM215.016 52.0703V52.8789C215.016 54.1758 214.84 55.3398 214.488 56.3711C214.137 57.4023 213.641 58.2812 213 59.0078C212.359 59.7266 211.594 60.2773 210.703 60.6602C209.82 61.043 208.84 61.2344 207.762 61.2344C206.691 61.2344 205.711 61.043 204.82 60.6602C203.938 60.2773 203.172 59.7266 202.523 59.0078C201.875 58.2812 201.371 57.4023 201.012 56.3711C200.66 55.3398 200.484 54.1758 200.484 52.8789V52.0703C200.484 50.7656 200.66 49.6016 201.012 48.5781C201.363 47.5469 201.859 46.668 202.5 45.9414C203.148 45.2148 203.914 44.6602 204.797 44.2773C205.688 43.8945 206.668 43.7031 207.738 43.7031C208.816 43.7031 209.797 43.8945 210.68 44.2773C211.57 44.6602 212.336 45.2148 212.977 45.9414C213.625 46.668 214.125 47.5469 214.477 48.5781C214.836 49.6016 215.016 50.7656 215.016 52.0703ZM211.465 52.8789V52.0469C211.465 51.1406 211.383 50.3438 211.219 49.6562C211.055 48.9688 210.812 48.3906 210.492 47.9219C210.172 47.4531 209.781 47.1016 209.32 46.8672C208.859 46.625 208.332 46.5039 207.738 46.5039C207.145 46.5039 206.617 46.625 206.156 46.8672C205.703 47.1016 205.316 47.4531 204.996 47.9219C204.684 48.3906 204.445 48.9688 204.281 49.6562C204.117 50.3438 204.035 51.1406 204.035 52.0469V52.8789C204.035 53.7773 204.117 54.5742 204.281 55.2695C204.445 55.957 204.688 56.5391 205.008 57.0156C205.328 57.4844 205.719 57.8398 206.18 58.082C206.641 58.3242 207.168 58.4453 207.762 58.4453C208.355 58.4453 208.883 58.3242 209.344 58.082C209.805 57.8398 210.191 57.4844 210.504 57.0156C210.816 56.5391 211.055 55.957 211.219 55.2695C211.383 54.5742 211.465 53.7773 211.465 52.8789ZM221.637 61H218.238V47.1953C218.238 46.2344 218.426 45.4258 218.801 44.7695C219.184 44.1055 219.719 43.6055 220.406 43.2695C221.102 42.9258 221.926 42.7539 222.879 42.7539C223.191 42.7539 223.492 42.7773 223.781 42.8242C224.07 42.8633 224.352 42.9141 224.625 42.9766L224.59 45.5195C224.441 45.4805 224.285 45.4531 224.121 45.4375C223.957 45.4219 223.766 45.4141 223.547 45.4141C223.141 45.4141 222.793 45.4844 222.504 45.625C222.223 45.7578 222.008 45.957 221.859 46.2227C221.711 46.4883 221.637 46.8125 221.637 47.1953V61ZM224.168 48.3203V50.7109H216.352V48.3203H224.168ZM230.238 61H226.84V47.1953C226.84 46.2344 227.027 45.4258 227.402 44.7695C227.785 44.1055 228.32 43.6055 229.008 43.2695C229.703 42.9258 230.527 42.7539 231.48 42.7539C231.793 42.7539 232.094 42.7773 232.383 42.8242C232.672 42.8633 232.953 42.9141 233.227 42.9766L233.191 45.5195C233.043 45.4805 232.887 45.4531 232.723 45.4375C232.559 45.4219 232.367 45.4141 232.148 45.4141C231.742 45.4141 231.395 45.4844 231.105 45.625C230.824 45.7578 230.609 45.957 230.461 46.2227C230.312 46.4883 230.238 46.8125 230.238 47.1953V61ZM232.77 48.3203V50.7109H224.953V48.3203H232.77Z" fill="#888888"/>
<path d="M118.594 98.4219V104.75H101.086V98.4219H118.594ZM103.828 84.875V119H95.6016V84.875H103.828ZM124.125 84.875V119H115.922V84.875H124.125ZM127.992 106.578V106.086C127.992 104.227 128.258 102.516 128.789 100.953C129.32 99.375 130.102 98.0078 131.133 96.8516C132.164 95.6953 133.438 94.7969 134.953 94.1562C136.469 93.5 138.219 93.1719 140.203 93.1719C142.203 93.1719 143.961 93.5 145.477 94.1562C147.008 94.7969 148.289 95.6953 149.32 96.8516C150.352 98.0078 151.133 99.375 151.664 100.953C152.195 102.516 152.461 104.227 152.461 106.086V106.578C152.461 108.422 152.195 110.133 151.664 111.711C151.133 113.273 150.352 114.641 149.32 115.812C148.289 116.969 147.016 117.867 145.5 118.508C143.984 119.148 142.234 119.469 140.25 119.469C138.266 119.469 136.508 119.148 134.977 118.508C133.445 117.867 132.164 116.969 131.133 115.812C130.102 114.641 129.32 113.273 128.789 111.711C128.258 110.133 127.992 108.422 127.992 106.578ZM135.891 106.086V106.578C135.891 107.531 135.961 108.422 136.102 109.25C136.242 110.078 136.477 110.805 136.805 111.43C137.133 112.039 137.578 112.516 138.141 112.859C138.703 113.203 139.406 113.375 140.25 113.375C141.078 113.375 141.766 113.203 142.312 112.859C142.875 112.516 143.32 112.039 143.648 111.43C143.977 110.805 144.211 110.078 144.352 109.25C144.492 108.422 144.562 107.531 144.562 106.578V106.086C144.562 105.164 144.492 104.297 144.352 103.484C144.211 102.656 143.977 101.93 143.648 101.305C143.32 100.664 142.875 100.164 142.312 99.8047C141.75 99.4453 141.047 99.2656 140.203 99.2656C139.375 99.2656 138.68 99.4453 138.117 99.8047C137.57 100.164 137.133 100.664 136.805 101.305C136.477 101.93 136.242 102.656 136.102 103.484C135.961 104.297 135.891 105.164 135.891 106.086ZM163.688 111.453L168.375 93.6406H173.32L171.562 102.57L166.922 119H162.961L163.688 111.453ZM161.836 93.6406L164.742 111.312L165.07 119H160.266L154.266 93.6406H161.836ZM177.492 110.938L180.422 93.6406H187.992L182.039 119H177.234L177.492 110.938ZM173.883 93.6406L178.617 111.406L179.344 119H175.336L170.789 102.617L169.102 93.6406H173.883ZM218.297 84.875V119H210.07V84.875H218.297ZM228.562 84.875V91.2266H200.039V84.875H228.562ZM225.773 106.578V106.086C225.773 104.227 226.039 102.516 226.57 100.953C227.102 99.375 227.883 98.0078 228.914 96.8516C229.945 95.6953 231.219 94.7969 232.734 94.1562C234.25 93.5 236 93.1719 237.984 93.1719C239.984 93.1719 241.742 93.5 243.258 94.1562C244.789 94.7969 246.07 95.6953 247.102 96.8516C248.133 98.0078 248.914 99.375 249.445 100.953C249.977 102.516 250.242 104.227 250.242 106.086V106.578C250.242 108.422 249.977 110.133 249.445 111.711C248.914 113.273 248.133 114.641 247.102 115.812C246.07 116.969 244.797 117.867 243.281 118.508C241.766 119.148 240.016 119.469 238.031 119.469C236.047 119.469 234.289 119.148 232.758 118.508C231.227 117.867 229.945 116.969 228.914 115.812C227.883 114.641 227.102 113.273 226.57 111.711C226.039 110.133 225.773 108.422 225.773 106.578ZM233.672 106.086V106.578C233.672 107.531 233.742 108.422 233.883 109.25C234.023 110.078 234.258 110.805 234.586 111.43C234.914 112.039 235.359 112.516 235.922 112.859C236.484 113.203 237.188 113.375 238.031 113.375C238.859 113.375 239.547 113.203 240.094 112.859C240.656 112.516 241.102 112.039 241.43 111.43C241.758 110.805 241.992 110.078 242.133 109.25C242.273 108.422 242.344 107.531 242.344 106.578V106.086C242.344 105.164 242.273 104.297 242.133 103.484C241.992 102.656 241.758 101.93 241.43 101.305C241.102 100.664 240.656 100.164 240.094 99.8047C239.531 99.4453 238.828 99.2656 237.984 99.2656C237.156 99.2656 236.461 99.4453 235.898 99.8047C235.352 100.164 234.914 100.664 234.586 101.305C234.258 101.93 234.023 102.656 233.883 103.484C233.742 104.297 233.672 105.164 233.672 106.086ZM266.086 84.875H279.516C282.141 84.875 284.422 85.2656 286.359 86.0469C288.297 86.8281 289.789 87.9844 290.836 89.5156C291.898 91.0469 292.43 92.9375 292.43 95.1875C292.43 97.1406 292.125 98.7734 291.516 100.086C290.906 101.398 290.055 102.484 288.961 103.344C287.883 104.188 286.625 104.883 285.188 105.43L282.492 106.953H271.219L271.172 100.602H279.516C280.562 100.602 281.43 100.414 282.117 100.039C282.805 99.6641 283.32 99.1328 283.664 98.4453C284.023 97.7422 284.203 96.9062 284.203 95.9375C284.203 94.9531 284.023 94.1094 283.664 93.4062C283.305 92.7031 282.773 92.1641 282.07 91.7891C281.383 91.4141 280.531 91.2266 279.516 91.2266H274.312V119H266.086V84.875ZM284.766 119L277.219 103.906L285.938 103.859L293.578 118.648V119H284.766ZM311.836 112.836V93.6406H319.758V119H312.352L311.836 112.836ZM312.586 107.68L314.648 107.633C314.648 109.336 314.445 110.914 314.039 112.367C313.633 113.805 313.031 115.055 312.234 116.117C311.453 117.18 310.484 118.008 309.328 118.602C308.188 119.18 306.867 119.469 305.367 119.469C304.117 119.469 302.969 119.297 301.922 118.953C300.891 118.594 300 118.039 299.25 117.289C298.5 116.523 297.914 115.547 297.492 114.359C297.086 113.156 296.883 111.719 296.883 110.047V93.6406H304.781V110.094C304.781 110.656 304.852 111.141 304.992 111.547C305.133 111.953 305.336 112.297 305.602 112.578C305.867 112.844 306.195 113.047 306.586 113.188C306.992 113.312 307.453 113.375 307.969 113.375C309.156 113.375 310.086 113.125 310.758 112.625C311.43 112.125 311.898 111.445 312.164 110.586C312.445 109.727 312.586 108.758 312.586 107.68ZM331.875 99.0547V119H323.977V93.6406H331.383L331.875 99.0547ZM330.938 105.453L329.086 105.5C329.086 103.562 329.32 101.836 329.789 100.32C330.258 98.7891 330.922 97.4922 331.781 96.4297C332.641 95.3672 333.664 94.5625 334.852 94.0156C336.055 93.4531 337.391 93.1719 338.859 93.1719C340.031 93.1719 341.102 93.3438 342.07 93.6875C343.055 94.0312 343.898 94.5859 344.602 95.3516C345.32 96.1172 345.867 97.1328 346.242 98.3984C346.633 99.6484 346.828 101.195 346.828 103.039V119H338.883V103.016C338.883 102 338.742 101.227 338.461 100.695C338.18 100.148 337.773 99.7734 337.242 99.5703C336.711 99.3672 336.062 99.2656 335.297 99.2656C334.484 99.2656 333.797 99.4219 333.234 99.7344C332.672 100.047 332.219 100.484 331.875 101.047C331.547 101.594 331.305 102.242 331.148 102.992C331.008 103.742 330.938 104.562 330.938 105.453ZM363.773 108.195H357.047C357.047 106.82 357.141 105.609 357.328 104.562C357.531 103.5 357.875 102.547 358.359 101.703C358.844 100.859 359.5 100.078 360.328 99.3594C361.062 98.75 361.695 98.1641 362.227 97.6016C362.758 97.0391 363.164 96.4688 363.445 95.8906C363.727 95.3125 363.867 94.6953 363.867 94.0391C363.867 93.2266 363.75 92.5625 363.516 92.0469C363.297 91.5312 362.961 91.1484 362.508 90.8984C362.07 90.6328 361.516 90.5 360.844 90.5C360.297 90.5 359.781 90.6328 359.297 90.8984C358.828 91.1641 358.445 91.5781 358.148 92.1406C357.852 92.6875 357.688 93.4141 357.656 94.3203H349.711C349.758 91.9922 350.273 90.1016 351.258 88.6484C352.258 87.1797 353.586 86.1094 355.242 85.4375C356.914 84.75 358.781 84.4062 360.844 84.4062C363.125 84.4062 365.086 84.7578 366.727 85.4609C368.367 86.1641 369.625 87.2109 370.5 88.6016C371.375 89.9766 371.812 91.6719 371.812 93.6875C371.812 95.0312 371.555 96.2031 371.039 97.2031C370.539 98.1875 369.859 99.1094 369 99.9688C368.156 100.812 367.211 101.719 366.164 102.688C365.258 103.484 364.641 104.297 364.312 105.125C363.984 105.938 363.805 106.961 363.773 108.195ZM356.086 115.32C356.086 114.195 356.492 113.258 357.305 112.508C358.117 111.742 359.172 111.359 360.469 111.359C361.766 111.359 362.82 111.742 363.633 112.508C364.445 113.258 364.852 114.195 364.852 115.32C364.852 116.445 364.445 117.391 363.633 118.156C362.82 118.906 361.766 119.281 360.469 119.281C359.172 119.281 358.117 118.906 357.305 118.156C356.492 117.391 356.086 116.445 356.086 115.32Z" fill="black"/>
<path d="M1134 0H1348C1356.28 0 1363 6.71573 1363 15V148C1363 156.284 1356.28 163 1348 163H1134V0Z" fill="#660066"/>
<path d="M1260.62 78.8078C1263.81 78.8078 1266.93 79.7552 1269.59 81.5302C1272.25 83.3052 1274.32 85.8281 1275.54 88.7798C1276.76 91.7316 1277.08 94.9795 1276.46 98.1131C1275.84 101.247 1274.3 104.125 1272.04 106.384C1269.78 108.643 1266.9 110.182 1263.77 110.805C1260.63 111.428 1257.39 111.108 1254.43 109.886C1251.48 108.663 1248.96 106.593 1247.18 103.936C1245.41 101.28 1244.46 98.1565 1244.46 94.9616C1244.46 90.6774 1246.16 86.5686 1249.19 83.5392C1252.22 80.5097 1256.33 78.8078 1260.62 78.8078ZM1260.62 73.4232C1256.36 73.4232 1252.19 74.6864 1248.65 77.0531C1245.11 79.4198 1242.35 82.7836 1240.72 86.7192C1239.09 90.6549 1238.66 94.9855 1239.49 99.1636C1240.32 103.342 1242.37 107.179 1245.39 110.192C1248.4 113.204 1252.24 115.255 1256.41 116.086C1260.59 116.917 1264.92 116.491 1268.86 114.861C1272.79 113.23 1276.16 110.47 1278.52 106.928C1280.89 103.386 1282.15 99.2215 1282.15 94.9616C1282.15 89.2493 1279.88 83.7709 1275.85 79.7317C1271.81 75.6924 1266.33 73.4232 1260.62 73.4232Z" fill="white"/>
<path d="M1274.08 46.5H1220.23C1218.8 46.5 1217.43 47.0673 1216.42 48.0771C1215.41 49.0869 1214.85 50.4565 1214.85 51.8846V105.731C1214.85 107.159 1215.41 108.528 1216.42 109.538C1217.43 110.548 1218.8 111.115 1220.23 111.115H1231V105.731H1220.23V68.0384H1279.46V51.8846C1279.46 50.4565 1278.89 49.0869 1277.88 48.0771C1276.87 47.0673 1275.5 46.5 1274.08 46.5ZM1220.23 62.6538V51.8846H1274.08V62.6538H1220.23Z" fill="white"/>
<path d="M1255.23 86.8849V103.039L1268.69 94.9618L1255.23 86.8849Z" fill="white"/>
</svg>
