<svg width="1374" height="163" viewBox="0 0 1374 163" fill="none" xmlns="http://www.w3.org/2000/svg">
<path d="M0 15C0 6.71573 6.71573 0 15 0H37V163H15C6.71573 163 0 156.284 0 148V15Z" fill="#660066"/>
<rect width="1108" height="163" transform="translate(37)" fill="#F0F0F0"/>
<path d="M101.906 53.9219L94.3945 51.2383V48.0859L104.602 52.375V54.6367L101.906 53.9219ZM94.3945 56.1719L101.918 53.4297L104.602 52.7852V55.0352L94.3945 59.3242V56.1719ZM108.527 43.9375H111.504L115.887 56.4648L120.27 43.9375H123.246L117.082 61H114.691L108.527 43.9375ZM106.922 43.9375H109.887L110.426 56.1484V61H106.922V43.9375ZM121.887 43.9375H124.863V61H121.348V56.1484L121.887 43.9375ZM131.496 59.5703L134.859 48.3203H138.48L133.383 62.9102C133.273 63.2305 133.125 63.5742 132.938 63.9414C132.758 64.3086 132.512 64.6562 132.199 64.9844C131.895 65.3203 131.508 65.5938 131.039 65.8047C130.578 66.0156 130.012 66.1211 129.34 66.1211C129.02 66.1211 128.758 66.1016 128.555 66.0625C128.352 66.0234 128.109 65.9688 127.828 65.8984V63.4258C127.914 63.4258 128.004 63.4258 128.098 63.4258C128.191 63.4336 128.281 63.4375 128.367 63.4375C128.812 63.4375 129.176 63.3867 129.457 63.2852C129.738 63.1836 129.965 63.0273 130.137 62.8164C130.309 62.6133 130.445 62.3477 130.547 62.0195L131.496 59.5703ZM130.09 48.3203L132.844 57.5078L133.324 61.082L131.027 61.3281L126.469 48.3203H130.09ZM147.668 43.9375V61H144.164V43.9375H147.668ZM152.918 43.9375V46.6914H138.996V43.9375H152.918ZM158.273 48.3203V61H154.887V48.3203H158.273ZM154.676 45.0156C154.676 44.5234 154.848 44.1172 155.191 43.7969C155.535 43.4766 155.996 43.3164 156.574 43.3164C157.145 43.3164 157.602 43.4766 157.945 43.7969C158.297 44.1172 158.473 44.5234 158.473 45.0156C158.473 45.5078 158.297 45.9141 157.945 46.2344C157.602 46.5547 157.145 46.7148 156.574 46.7148C155.996 46.7148 155.535 46.5547 155.191 46.2344C154.848 45.9141 154.676 45.5078 154.676 45.0156ZM164.438 50.9453V61H161.051V48.3203H164.227L164.438 50.9453ZM163.969 54.2148H163.031C163.031 53.332 163.137 52.5195 163.348 51.7773C163.566 51.0273 163.883 50.3789 164.297 49.832C164.719 49.2773 165.238 48.8477 165.855 48.543C166.473 48.2383 167.188 48.0859 168 48.0859C168.562 48.0859 169.078 48.1719 169.547 48.3438C170.016 48.5078 170.418 48.7695 170.754 49.1289C171.098 49.4805 171.363 49.9414 171.551 50.5117C171.738 51.0742 171.832 51.75 171.832 52.5391V61H168.457V52.9141C168.457 52.3359 168.379 51.8906 168.223 51.5781C168.066 51.2656 167.844 51.0469 167.555 50.9219C167.273 50.7969 166.934 50.7344 166.535 50.7344C166.098 50.7344 165.715 50.8242 165.387 51.0039C165.066 51.1836 164.801 51.4336 164.59 51.7539C164.379 52.0664 164.223 52.4336 164.121 52.8555C164.02 53.2773 163.969 53.7305 163.969 54.2148ZM171.516 53.8281L170.309 53.9805C170.309 53.1523 170.41 52.3828 170.613 51.6719C170.824 50.9609 171.133 50.3359 171.539 49.7969C171.953 49.2578 172.465 48.8398 173.074 48.543C173.684 48.2383 174.387 48.0859 175.184 48.0859C175.793 48.0859 176.348 48.1758 176.848 48.3555C177.348 48.5273 177.773 48.8047 178.125 49.1875C178.484 49.5625 178.758 50.0547 178.945 50.6641C179.141 51.2734 179.238 52.0195 179.238 52.9023V61H175.852V52.9023C175.852 52.3164 175.773 51.8711 175.617 51.5664C175.469 51.2539 175.25 51.0391 174.961 50.9219C174.68 50.7969 174.344 50.7344 173.953 50.7344C173.547 50.7344 173.191 50.8164 172.887 50.9805C172.582 51.1367 172.328 51.3555 172.125 51.6367C171.922 51.918 171.77 52.2461 171.668 52.6211C171.566 52.9883 171.516 53.3906 171.516 53.8281ZM187.688 61.2344C186.703 61.2344 185.82 61.0781 185.039 60.7656C184.258 60.4453 183.594 60.0039 183.047 59.4414C182.508 58.8789 182.094 58.2266 181.805 57.4844C181.516 56.7344 181.371 55.9375 181.371 55.0938V54.625C181.371 53.6641 181.508 52.7852 181.781 51.9883C182.055 51.1914 182.445 50.5 182.953 49.9141C183.469 49.3281 184.094 48.8789 184.828 48.5664C185.562 48.2461 186.391 48.0859 187.312 48.0859C188.211 48.0859 189.008 48.2344 189.703 48.5312C190.398 48.8281 190.98 49.25 191.449 49.7969C191.926 50.3438 192.285 51 192.527 51.7656C192.77 52.5234 192.891 53.3672 192.891 54.2969V55.7031H182.812V53.4531H189.574V53.1953C189.574 52.7266 189.488 52.3086 189.316 51.9414C189.152 51.5664 188.902 51.2695 188.566 51.0508C188.23 50.832 187.801 50.7227 187.277 50.7227C186.832 50.7227 186.449 50.8203 186.129 51.0156C185.809 51.2109 185.547 51.4844 185.344 51.8359C185.148 52.1875 185 52.6016 184.898 53.0781C184.805 53.5469 184.758 54.0625 184.758 54.625V55.0938C184.758 55.6016 184.828 56.0703 184.969 56.5C185.117 56.9297 185.324 57.3008 185.59 57.6133C185.863 57.9258 186.191 58.168 186.574 58.3398C186.965 58.5117 187.406 58.5977 187.898 58.5977C188.508 58.5977 189.074 58.4805 189.598 58.2461C190.129 58.0039 190.586 57.6406 190.969 57.1562L192.609 58.9375C192.344 59.3203 191.98 59.6875 191.52 60.0391C191.066 60.3906 190.52 60.6797 189.879 60.9062C189.238 61.125 188.508 61.2344 187.688 61.2344ZM209.039 52.0703V52.8789C209.039 54.1758 208.863 55.3398 208.512 56.3711C208.16 57.4023 207.664 58.2812 207.023 59.0078C206.383 59.7266 205.617 60.2773 204.727 60.6602C203.844 61.043 202.863 61.2344 201.785 61.2344C200.715 61.2344 199.734 61.043 198.844 60.6602C197.961 60.2773 197.195 59.7266 196.547 59.0078C195.898 58.2812 195.395 57.4023 195.035 56.3711C194.684 55.3398 194.508 54.1758 194.508 52.8789V52.0703C194.508 50.7656 194.684 49.6016 195.035 48.5781C195.387 47.5469 195.883 46.668 196.523 45.9414C197.172 45.2148 197.938 44.6602 198.82 44.2773C199.711 43.8945 200.691 43.7031 201.762 43.7031C202.84 43.7031 203.82 43.8945 204.703 44.2773C205.594 44.6602 206.359 45.2148 207 45.9414C207.648 46.668 208.148 47.5469 208.5 48.5781C208.859 49.6016 209.039 50.7656 209.039 52.0703ZM205.488 52.8789V52.0469C205.488 51.1406 205.406 50.3438 205.242 49.6562C205.078 48.9688 204.836 48.3906 204.516 47.9219C204.195 47.4531 203.805 47.1016 203.344 46.8672C202.883 46.625 202.355 46.5039 201.762 46.5039C201.168 46.5039 200.641 46.625 200.18 46.8672C199.727 47.1016 199.34 47.4531 199.02 47.9219C198.707 48.3906 198.469 48.9688 198.305 49.6562C198.141 50.3438 198.059 51.1406 198.059 52.0469V52.8789C198.059 53.7773 198.141 54.5742 198.305 55.2695C198.469 55.957 198.711 56.5391 199.031 57.0156C199.352 57.4844 199.742 57.8398 200.203 58.082C200.664 58.3242 201.191 58.4453 201.785 58.4453C202.379 58.4453 202.906 58.3242 203.367 58.082C203.828 57.8398 204.215 57.4844 204.527 57.0156C204.84 56.5391 205.078 55.957 205.242 55.2695C205.406 54.5742 205.488 53.7773 205.488 52.8789ZM215.66 61H212.262V47.1953C212.262 46.2344 212.449 45.4258 212.824 44.7695C213.207 44.1055 213.742 43.6055 214.43 43.2695C215.125 42.9258 215.949 42.7539 216.902 42.7539C217.215 42.7539 217.516 42.7773 217.805 42.8242C218.094 42.8633 218.375 42.9141 218.648 42.9766L218.613 45.5195C218.465 45.4805 218.309 45.4531 218.145 45.4375C217.98 45.4219 217.789 45.4141 217.57 45.4141C217.164 45.4141 216.816 45.4844 216.527 45.625C216.246 45.7578 216.031 45.957 215.883 46.2227C215.734 46.4883 215.66 46.8125 215.66 47.1953V61ZM218.191 48.3203V50.7109H210.375V48.3203H218.191ZM224.262 61H220.863V47.1953C220.863 46.2344 221.051 45.4258 221.426 44.7695C221.809 44.1055 222.344 43.6055 223.031 43.2695C223.727 42.9258 224.551 42.7539 225.504 42.7539C225.816 42.7539 226.117 42.7773 226.406 42.8242C226.695 42.8633 226.977 42.9141 227.25 42.9766L227.215 45.5195C227.066 45.4805 226.91 45.4531 226.746 45.4375C226.582 45.4219 226.391 45.4141 226.172 45.4141C225.766 45.4141 225.418 45.4844 225.129 45.625C224.848 45.7578 224.633 45.957 224.484 46.2227C224.336 46.4883 224.262 46.8125 224.262 47.1953V61ZM226.793 48.3203V50.7109H218.977V48.3203H226.793Z" fill="#888888"/>
<path d="M104.344 84.875V119H96.1406V84.875H104.344ZM117.727 99.0078V119H109.828V93.6406H117.234L117.727 99.0078ZM116.766 105.453L114.961 105.5C114.961 103.719 115.172 102.078 115.594 100.578C116.016 99.0781 116.641 97.7734 117.469 96.6641C118.297 95.5547 119.312 94.6953 120.516 94.0859C121.734 93.4766 123.141 93.1719 124.734 93.1719C125.844 93.1719 126.852 93.3438 127.758 93.6875C128.664 94.0156 129.445 94.5391 130.102 95.2578C130.758 95.9609 131.258 96.8828 131.602 98.0234C131.961 99.1484 132.141 100.5 132.141 102.078V119H124.242V103.086C124.242 102.008 124.117 101.195 123.867 100.648C123.633 100.102 123.289 99.7344 122.836 99.5469C122.383 99.3594 121.828 99.2656 121.172 99.2656C120.484 99.2656 119.867 99.4219 119.32 99.7344C118.773 100.047 118.305 100.484 117.914 101.047C117.539 101.594 117.25 102.242 117.047 102.992C116.859 103.742 116.766 104.562 116.766 105.453ZM131.25 105.453L129.047 105.5C129.047 103.719 129.242 102.078 129.633 100.578C130.039 99.0781 130.641 97.7734 131.438 96.6641C132.25 95.5547 133.258 94.6953 134.461 94.0859C135.664 93.4766 137.062 93.1719 138.656 93.1719C139.812 93.1719 140.875 93.3438 141.844 93.6875C142.812 94.0312 143.648 94.5859 144.352 95.3516C145.055 96.1172 145.602 97.1328 145.992 98.3984C146.383 99.6484 146.578 101.195 146.578 103.039V119H138.656V103.039C138.656 101.992 138.531 101.203 138.281 100.672C138.047 100.125 137.703 99.7578 137.25 99.5703C136.797 99.3672 136.258 99.2656 135.633 99.2656C134.883 99.2656 134.234 99.4219 133.688 99.7344C133.141 100.047 132.68 100.484 132.305 101.047C131.945 101.594 131.68 102.242 131.508 102.992C131.336 103.742 131.25 104.562 131.25 105.453ZM159.07 98.5156V128.75H151.172V93.6406H158.531L159.07 98.5156ZM174.633 106.016V106.508C174.633 108.352 174.422 110.062 174 111.641C173.578 113.219 172.953 114.594 172.125 115.766C171.297 116.938 170.266 117.852 169.031 118.508C167.812 119.148 166.398 119.469 164.789 119.469C163.273 119.469 161.969 119.133 160.875 118.461C159.781 117.789 158.867 116.859 158.133 115.672C157.398 114.484 156.805 113.125 156.352 111.594C155.898 110.062 155.539 108.445 155.273 106.742V106.109C155.539 104.281 155.898 102.586 156.352 101.023C156.805 99.4453 157.398 98.0703 158.133 96.8984C158.867 95.7266 159.773 94.8125 160.852 94.1562C161.945 93.5 163.25 93.1719 164.766 93.1719C166.375 93.1719 167.789 93.4766 169.008 94.0859C170.242 94.6953 171.273 95.5703 172.102 96.7109C172.945 97.8359 173.578 99.1875 174 100.766C174.422 102.344 174.633 104.094 174.633 106.016ZM166.734 106.508V106.016C166.734 105.031 166.664 104.133 166.523 103.32C166.383 102.492 166.156 101.773 165.844 101.164C165.547 100.555 165.148 100.086 164.648 99.7578C164.148 99.4297 163.531 99.2656 162.797 99.2656C161.953 99.2656 161.242 99.3984 160.664 99.6641C160.102 99.9141 159.648 100.305 159.305 100.836C158.977 101.352 158.742 102 158.602 102.781C158.477 103.547 158.422 104.445 158.438 105.477V107.398C158.406 108.586 158.523 109.633 158.789 110.539C159.055 111.43 159.516 112.125 160.172 112.625C160.828 113.125 161.719 113.375 162.844 113.375C163.594 113.375 164.219 113.203 164.719 112.859C165.219 112.5 165.617 112.008 165.914 111.383C166.211 110.742 166.422 110.008 166.547 109.18C166.672 108.352 166.734 107.461 166.734 106.508ZM186.492 83V119H178.57V83H186.492ZM203.648 119.469C201.586 119.469 199.742 119.148 198.117 118.508C196.492 117.852 195.117 116.953 193.992 115.812C192.883 114.672 192.031 113.359 191.438 111.875C190.859 110.391 190.57 108.82 190.57 107.164V106.273C190.57 104.414 190.828 102.695 191.344 101.117C191.859 99.5234 192.625 98.1328 193.641 96.9453C194.656 95.7578 195.93 94.8359 197.461 94.1797C198.992 93.5078 200.773 93.1719 202.805 93.1719C204.602 93.1719 206.211 93.4609 207.633 94.0391C209.055 94.6172 210.258 95.4453 211.242 96.5234C212.242 97.6016 213 98.9062 213.516 100.438C214.047 101.969 214.312 103.688 214.312 105.594V108.805H193.594V103.859H206.602V103.25C206.617 102.406 206.469 101.688 206.156 101.094C205.859 100.5 205.422 100.047 204.844 99.7344C204.266 99.4219 203.562 99.2656 202.734 99.2656C201.875 99.2656 201.164 99.4531 200.602 99.8281C200.055 100.203 199.625 100.719 199.312 101.375C199.016 102.016 198.805 102.758 198.68 103.602C198.555 104.445 198.492 105.336 198.492 106.273V107.164C198.492 108.102 198.617 108.953 198.867 109.719C199.133 110.484 199.508 111.141 199.992 111.688C200.492 112.219 201.086 112.633 201.773 112.93C202.477 113.227 203.273 113.375 204.164 113.375C205.242 113.375 206.305 113.172 207.352 112.766C208.398 112.359 209.297 111.688 210.047 110.75L213.633 115.016C213.117 115.75 212.383 116.461 211.43 117.148C210.492 117.836 209.367 118.398 208.055 118.836C206.742 119.258 205.273 119.469 203.648 119.469ZM225.492 99.0078V119H217.594V93.6406H225L225.492 99.0078ZM224.531 105.453L222.727 105.5C222.727 103.719 222.938 102.078 223.359 100.578C223.781 99.0781 224.406 97.7734 225.234 96.6641C226.062 95.5547 227.078 94.6953 228.281 94.0859C229.5 93.4766 230.906 93.1719 232.5 93.1719C233.609 93.1719 234.617 93.3438 235.523 93.6875C236.43 94.0156 237.211 94.5391 237.867 95.2578C238.523 95.9609 239.023 96.8828 239.367 98.0234C239.727 99.1484 239.906 100.5 239.906 102.078V119H232.008V103.086C232.008 102.008 231.883 101.195 231.633 100.648C231.398 100.102 231.055 99.7344 230.602 99.5469C230.148 99.3594 229.594 99.2656 228.938 99.2656C228.25 99.2656 227.633 99.4219 227.086 99.7344C226.539 100.047 226.07 100.484 225.68 101.047C225.305 101.594 225.016 102.242 224.812 102.992C224.625 103.742 224.531 104.562 224.531 105.453ZM239.016 105.453L236.812 105.5C236.812 103.719 237.008 102.078 237.398 100.578C237.805 99.0781 238.406 97.7734 239.203 96.6641C240.016 95.5547 241.023 94.6953 242.227 94.0859C243.43 93.4766 244.828 93.1719 246.422 93.1719C247.578 93.1719 248.641 93.3438 249.609 93.6875C250.578 94.0312 251.414 94.5859 252.117 95.3516C252.82 96.1172 253.367 97.1328 253.758 98.3984C254.148 99.6484 254.344 101.195 254.344 103.039V119H246.422V103.039C246.422 101.992 246.297 101.203 246.047 100.672C245.812 100.125 245.469 99.7578 245.016 99.5703C244.562 99.3672 244.023 99.2656 243.398 99.2656C242.648 99.2656 242 99.4219 241.453 99.7344C240.906 100.047 240.445 100.484 240.07 101.047C239.711 101.594 239.445 102.242 239.273 102.992C239.102 103.742 239.016 104.562 239.016 105.453ZM271.148 119.469C269.086 119.469 267.242 119.148 265.617 118.508C263.992 117.852 262.617 116.953 261.492 115.812C260.383 114.672 259.531 113.359 258.938 111.875C258.359 110.391 258.07 108.82 258.07 107.164V106.273C258.07 104.414 258.328 102.695 258.844 101.117C259.359 99.5234 260.125 98.1328 261.141 96.9453C262.156 95.7578 263.43 94.8359 264.961 94.1797C266.492 93.5078 268.273 93.1719 270.305 93.1719C272.102 93.1719 273.711 93.4609 275.133 94.0391C276.555 94.6172 277.758 95.4453 278.742 96.5234C279.742 97.6016 280.5 98.9062 281.016 100.438C281.547 101.969 281.812 103.688 281.812 105.594V108.805H261.094V103.859H274.102V103.25C274.117 102.406 273.969 101.688 273.656 101.094C273.359 100.5 272.922 100.047 272.344 99.7344C271.766 99.4219 271.062 99.2656 270.234 99.2656C269.375 99.2656 268.664 99.4531 268.102 99.8281C267.555 100.203 267.125 100.719 266.812 101.375C266.516 102.016 266.305 102.758 266.18 103.602C266.055 104.445 265.992 105.336 265.992 106.273V107.164C265.992 108.102 266.117 108.953 266.367 109.719C266.633 110.484 267.008 111.141 267.492 111.688C267.992 112.219 268.586 112.633 269.273 112.93C269.977 113.227 270.773 113.375 271.664 113.375C272.742 113.375 273.805 113.172 274.852 112.766C275.898 112.359 276.797 111.688 277.547 110.75L281.133 115.016C280.617 115.75 279.883 116.461 278.93 117.148C277.992 117.836 276.867 118.398 275.555 118.836C274.242 119.258 272.773 119.469 271.148 119.469ZM292.781 99.0547V119H284.883V93.6406H292.289L292.781 99.0547ZM291.844 105.453L289.992 105.5C289.992 103.562 290.227 101.836 290.695 100.32C291.164 98.7891 291.828 97.4922 292.688 96.4297C293.547 95.3672 294.57 94.5625 295.758 94.0156C296.961 93.4531 298.297 93.1719 299.766 93.1719C300.938 93.1719 302.008 93.3438 302.977 93.6875C303.961 94.0312 304.805 94.5859 305.508 95.3516C306.227 96.1172 306.773 97.1328 307.148 98.3984C307.539 99.6484 307.734 101.195 307.734 103.039V119H299.789V103.016C299.789 102 299.648 101.227 299.367 100.695C299.086 100.148 298.68 99.7734 298.148 99.5703C297.617 99.3672 296.969 99.2656 296.203 99.2656C295.391 99.2656 294.703 99.4219 294.141 99.7344C293.578 100.047 293.125 100.484 292.781 101.047C292.453 101.594 292.211 102.242 292.055 102.992C291.914 103.742 291.844 104.562 291.844 105.453ZM325.477 93.6406V99.125H310.195V93.6406H325.477ZM313.406 87.3359H321.305V110.727C321.305 111.398 321.383 111.922 321.539 112.297C321.695 112.656 321.961 112.914 322.336 113.07C322.727 113.211 323.242 113.281 323.883 113.281C324.336 113.281 324.711 113.273 325.008 113.258C325.305 113.227 325.586 113.188 325.852 113.141V118.789C325.18 119.008 324.477 119.172 323.742 119.281C323.008 119.406 322.227 119.469 321.398 119.469C319.711 119.469 318.266 119.203 317.062 118.672C315.875 118.141 314.969 117.305 314.344 116.164C313.719 115.023 313.406 113.539 313.406 111.711V87.3359ZM341.789 112.625V102.172C341.789 101.453 341.688 100.836 341.484 100.32C341.281 99.8047 340.961 99.4062 340.523 99.125C340.086 98.8281 339.5 98.6797 338.766 98.6797C338.172 98.6797 337.664 98.7812 337.242 98.9844C336.82 99.1875 336.5 99.4922 336.281 99.8984C336.062 100.305 335.953 100.82 335.953 101.445H328.055C328.055 100.273 328.312 99.1875 328.828 98.1875C329.359 97.1719 330.109 96.2891 331.078 95.5391C332.062 94.7891 333.234 94.2109 334.594 93.8047C335.969 93.3828 337.5 93.1719 339.188 93.1719C341.203 93.1719 343 93.5078 344.578 94.1797C346.172 94.8516 347.43 95.8594 348.352 97.2031C349.273 98.5312 349.734 100.203 349.734 102.219V112.602C349.734 114.258 349.828 115.516 350.016 116.375C350.203 117.219 350.469 117.961 350.812 118.602V119H342.891C342.516 118.219 342.234 117.266 342.047 116.141C341.875 115 341.789 113.828 341.789 112.625ZM342.75 103.508L342.797 107.727H339.305C338.57 107.727 337.945 107.828 337.43 108.031C336.93 108.234 336.523 108.516 336.211 108.875C335.914 109.219 335.695 109.609 335.555 110.047C335.43 110.484 335.367 110.945 335.367 111.43C335.367 111.898 335.477 112.32 335.695 112.695C335.93 113.055 336.242 113.336 336.633 113.539C337.023 113.742 337.461 113.844 337.945 113.844C338.82 113.844 339.562 113.68 340.172 113.352C340.797 113.008 341.273 112.594 341.602 112.109C341.93 111.625 342.094 111.172 342.094 110.75L343.828 113.984C343.516 114.609 343.156 115.242 342.75 115.883C342.359 116.523 341.867 117.117 341.273 117.664C340.695 118.195 339.984 118.633 339.141 118.977C338.297 119.305 337.273 119.469 336.07 119.469C334.508 119.469 333.07 119.148 331.758 118.508C330.461 117.867 329.422 116.977 328.641 115.836C327.859 114.68 327.469 113.352 327.469 111.852C327.469 110.539 327.703 109.367 328.172 108.336C328.656 107.305 329.383 106.43 330.352 105.711C331.32 104.992 332.555 104.445 334.055 104.07C335.555 103.695 337.32 103.508 339.352 103.508H342.75ZM367.477 93.6406V99.125H352.195V93.6406H367.477ZM355.406 87.3359H363.305V110.727C363.305 111.398 363.383 111.922 363.539 112.297C363.695 112.656 363.961 112.914 364.336 113.07C364.727 113.211 365.242 113.281 365.883 113.281C366.336 113.281 366.711 113.273 367.008 113.258C367.305 113.227 367.586 113.188 367.852 113.141V118.789C367.18 119.008 366.477 119.172 365.742 119.281C365.008 119.406 364.227 119.469 363.398 119.469C361.711 119.469 360.266 119.203 359.062 118.672C357.875 118.141 356.969 117.305 356.344 116.164C355.719 115.023 355.406 113.539 355.406 111.711V87.3359ZM378.961 93.6406V119H371.039V93.6406H378.961ZM370.57 87.1016C370.57 85.9766 370.977 85.0547 371.789 84.3359C372.602 83.6172 373.656 83.2578 374.953 83.2578C376.25 83.2578 377.305 83.6172 378.117 84.3359C378.93 85.0547 379.336 85.9766 379.336 87.1016C379.336 88.2266 378.93 89.1484 378.117 89.8672C377.305 90.5859 376.25 90.9453 374.953 90.9453C373.656 90.9453 372.602 90.5859 371.789 89.8672C370.977 89.1484 370.57 88.2266 370.57 87.1016ZM382.852 106.578V106.086C382.852 104.227 383.117 102.516 383.648 100.953C384.18 99.375 384.961 98.0078 385.992 96.8516C387.023 95.6953 388.297 94.7969 389.812 94.1562C391.328 93.5 393.078 93.1719 395.062 93.1719C397.062 93.1719 398.82 93.5 400.336 94.1562C401.867 94.7969 403.148 95.6953 404.18 96.8516C405.211 98.0078 405.992 99.375 406.523 100.953C407.055 102.516 407.32 104.227 407.32 106.086V106.578C407.32 108.422 407.055 110.133 406.523 111.711C405.992 113.273 405.211 114.641 404.18 115.812C403.148 116.969 401.875 117.867 400.359 118.508C398.844 119.148 397.094 119.469 395.109 119.469C393.125 119.469 391.367 119.148 389.836 118.508C388.305 117.867 387.023 116.969 385.992 115.812C384.961 114.641 384.18 113.273 383.648 111.711C383.117 110.133 382.852 108.422 382.852 106.578ZM390.75 106.086V106.578C390.75 107.531 390.82 108.422 390.961 109.25C391.102 110.078 391.336 110.805 391.664 111.43C391.992 112.039 392.438 112.516 393 112.859C393.562 113.203 394.266 113.375 395.109 113.375C395.938 113.375 396.625 113.203 397.172 112.859C397.734 112.516 398.18 112.039 398.508 111.43C398.836 110.805 399.07 110.078 399.211 109.25C399.352 108.422 399.422 107.531 399.422 106.578V106.086C399.422 105.164 399.352 104.297 399.211 103.484C399.07 102.656 398.836 101.93 398.508 101.305C398.18 100.664 397.734 100.164 397.172 99.8047C396.609 99.4453 395.906 99.2656 395.062 99.2656C394.234 99.2656 393.539 99.4453 392.977 99.8047C392.43 100.164 391.992 100.664 391.664 101.305C391.336 101.93 391.102 102.656 390.961 103.484C390.82 104.297 390.75 105.164 390.75 106.086ZM418.594 99.0547V119H410.695V93.6406H418.102L418.594 99.0547ZM417.656 105.453L415.805 105.5C415.805 103.562 416.039 101.836 416.508 100.32C416.977 98.7891 417.641 97.4922 418.5 96.4297C419.359 95.3672 420.383 94.5625 421.57 94.0156C422.773 93.4531 424.109 93.1719 425.578 93.1719C426.75 93.1719 427.82 93.3438 428.789 93.6875C429.773 94.0312 430.617 94.5859 431.32 95.3516C432.039 96.1172 432.586 97.1328 432.961 98.3984C433.352 99.6484 433.547 101.195 433.547 103.039V119H425.602V103.016C425.602 102 425.461 101.227 425.18 100.695C424.898 100.148 424.492 99.7734 423.961 99.5703C423.43 99.3672 422.781 99.2656 422.016 99.2656C421.203 99.2656 420.516 99.4219 419.953 99.7344C419.391 100.047 418.938 100.484 418.594 101.047C418.266 101.594 418.023 102.242 417.867 102.992C417.727 103.742 417.656 104.562 417.656 105.453Z" fill="black"/>
<path d="M1145 0H1359C1367.28 0 1374 6.71573 1374 15V148C1374 156.284 1367.28 163 1359 163H1145V0Z" fill="#660066"/>
<path d="M1292 46.5H1227L1224.5 49V114L1227 116.5H1292L1294.5 114V49L1292 46.5ZM1289.5 111.5H1244.5V101.5H1256C1257.5 104.5 1261 106.5 1264.5 106.5C1270 106.5 1274.5 102 1274.5 96.5C1274.5 91 1270 86.5 1264.5 86.5C1259 86.5 1254.5 91 1254.5 96.5H1239.5V111.5H1229.5V51.5H1239.5V63C1236.5 64.5 1234.5 68 1234.5 71.5C1234.5 77 1239 81.5 1244.5 81.5C1250 81.5 1254.5 77 1254.5 71.5H1264.5C1264.5 77 1269 81.5 1274.5 81.5C1280 81.5 1284.5 77 1284.5 71.5C1284.5 66 1280 61.5 1274.5 61.5C1271 61.5 1267.5 63.5 1266 66.5H1253C1251.5 63.5 1248 61.5 1244.5 61.5V51.5H1289.5V111.5ZM1259.5 96.5C1259.5 93.5 1261.5 91.5 1264.5 91.5C1267.5 91.5 1269.5 93.5 1269.5 96.5C1269.5 99.5 1267.5 101.5 1264.5 101.5C1261.5 101.5 1259.5 99.5 1259.5 96.5ZM1244.5 66.5C1247.5 66.5 1249.5 68.5 1249.5 71.5C1249.5 74.5 1247.5 76.5 1244.5 76.5C1241.5 76.5 1239.5 74.5 1239.5 71.5C1239.5 68.5 1241.5 66.5 1244.5 66.5ZM1274.5 66.5C1277.5 66.5 1279.5 68.5 1279.5 71.5C1279.5 74.5 1277.5 76.5 1274.5 76.5C1271.5 76.5 1269.5 74.5 1269.5 71.5C1269.5 68.5 1271.5 66.5 1274.5 66.5Z" fill="white"/>
</svg>
