<svg width="1363" height="297" viewBox="0 0 1363 297" fill="none" xmlns="http://www.w3.org/2000/svg">
<path d="M0 15C0 6.71573 6.71573 0 15 0H37V297H15C6.71573 297 0 290.284 0 282V15Z" fill="#660066"/>
<path d="M37 0H1363V297H37V0Z" fill="#F0F0F0"/>
<path d="M97.6934 49.4062H102.158L108.732 68.1973L115.307 49.4062H119.771L110.525 75H106.939L97.6934 49.4062ZM95.2852 49.4062H99.7324L100.541 67.7227V75H95.2852V49.4062ZM117.732 49.4062H122.197V75H116.924V67.7227L117.732 49.4062ZM131.848 55.9805V75H126.768V55.9805H131.848ZM126.451 51.0234C126.451 50.2852 126.709 49.6758 127.225 49.1953C127.74 48.7148 128.432 48.4746 129.299 48.4746C130.154 48.4746 130.84 48.7148 131.355 49.1953C131.883 49.6758 132.146 50.2852 132.146 51.0234C132.146 51.7617 131.883 52.3711 131.355 52.8516C130.84 53.332 130.154 53.5723 129.299 53.5723C128.432 53.5723 127.74 53.332 127.225 52.8516C126.709 52.3711 126.451 51.7617 126.451 51.0234ZM141.094 60.1289V75H136.031V55.9805H140.795L141.094 60.1289ZM146.824 55.8574L146.736 60.5508C146.49 60.5156 146.191 60.4863 145.84 60.4629C145.5 60.4277 145.189 60.4102 144.908 60.4102C144.193 60.4102 143.572 60.5039 143.045 60.6914C142.529 60.8672 142.096 61.1309 141.744 61.4824C141.404 61.834 141.146 62.2617 140.971 62.7656C140.807 63.2695 140.713 63.8438 140.689 64.4883L139.67 64.1719C139.67 62.9414 139.793 61.8105 140.039 60.7793C140.285 59.7363 140.643 58.8281 141.111 58.0547C141.592 57.2812 142.178 56.6836 142.869 56.2617C143.561 55.8398 144.352 55.6289 145.242 55.6289C145.523 55.6289 145.811 55.6523 146.104 55.6992C146.396 55.7344 146.637 55.7871 146.824 55.8574ZM156 71.3086L160.219 55.9805H165.51L159.094 75H155.895L156 71.3086ZM153.1 55.9805L157.336 71.3262L157.424 75H154.207L147.791 55.9805H153.1ZM177.762 70.7109V62.2383C177.762 61.6289 177.662 61.1074 177.463 60.6738C177.264 60.2285 176.953 59.8828 176.531 59.6367C176.121 59.3906 175.588 59.2676 174.932 59.2676C174.369 59.2676 173.883 59.3672 173.473 59.5664C173.062 59.7539 172.746 60.0293 172.523 60.3926C172.301 60.7441 172.189 61.1602 172.189 61.6406H167.127C167.127 60.832 167.314 60.0645 167.689 59.3379C168.064 58.6113 168.609 57.9727 169.324 57.4219C170.039 56.8594 170.889 56.4199 171.873 56.1035C172.869 55.7871 173.982 55.6289 175.213 55.6289C176.689 55.6289 178.002 55.875 179.15 56.3672C180.299 56.8594 181.201 57.5977 181.857 58.582C182.525 59.5664 182.859 60.7969 182.859 62.2734V70.4121C182.859 71.4551 182.924 72.3105 183.053 72.9785C183.182 73.6348 183.369 74.209 183.615 74.7012V75H178.5C178.254 74.4844 178.066 73.8398 177.938 73.0664C177.82 72.2812 177.762 71.4961 177.762 70.7109ZM178.43 63.416L178.465 66.2812H175.635C174.967 66.2812 174.387 66.3574 173.895 66.5098C173.402 66.6621 172.998 66.8789 172.682 67.1602C172.365 67.4297 172.131 67.7461 171.979 68.1094C171.838 68.4727 171.768 68.8711 171.768 69.3047C171.768 69.7383 171.867 70.1309 172.066 70.4824C172.266 70.8223 172.553 71.0918 172.928 71.291C173.303 71.4785 173.742 71.5723 174.246 71.5723C175.008 71.5723 175.67 71.4199 176.232 71.1152C176.795 70.8105 177.229 70.4355 177.533 69.9902C177.85 69.5449 178.014 69.123 178.025 68.7246L179.361 70.8691C179.174 71.3496 178.916 71.8477 178.588 72.3633C178.271 72.8789 177.867 73.3652 177.375 73.8223C176.883 74.2676 176.291 74.6367 175.6 74.9297C174.908 75.2109 174.088 75.3516 173.139 75.3516C171.932 75.3516 170.836 75.1113 169.852 74.6309C168.879 74.1387 168.105 73.4648 167.531 72.6094C166.969 71.7422 166.688 70.7578 166.688 69.6562C166.688 68.6602 166.875 67.7754 167.25 67.002C167.625 66.2285 168.176 65.5781 168.902 65.0508C169.641 64.5117 170.561 64.1074 171.662 63.8379C172.764 63.5566 174.041 63.416 175.494 63.416H178.43ZM196.078 55.9805V59.5664H185.004V55.9805H196.078ZM187.746 51.2871H192.809V69.2695C192.809 69.8203 192.879 70.2422 193.02 70.5352C193.172 70.8281 193.395 71.0332 193.688 71.1504C193.98 71.2559 194.35 71.3086 194.795 71.3086C195.111 71.3086 195.393 71.2969 195.639 71.2734C195.896 71.2383 196.113 71.2031 196.289 71.168L196.307 74.8945C195.873 75.0352 195.404 75.1465 194.9 75.2285C194.396 75.3105 193.84 75.3516 193.23 75.3516C192.117 75.3516 191.145 75.1699 190.312 74.8066C189.492 74.4316 188.859 73.834 188.414 73.0137C187.969 72.1934 187.746 71.1152 187.746 69.7793V51.2871ZM218.262 63.7676H211.688L211.652 60.1465H217.172C218.145 60.1465 218.941 60.0234 219.562 59.7773C220.184 59.5195 220.646 59.1504 220.951 58.6699C221.268 58.1777 221.426 57.5801 221.426 56.877C221.426 56.0801 221.273 55.4355 220.969 54.9434C220.676 54.4512 220.213 54.0938 219.58 53.8711C218.959 53.6484 218.156 53.5371 217.172 53.5371H213.516V75H208.242V49.4062H217.172C218.66 49.4062 219.99 49.5469 221.162 49.8281C222.346 50.1094 223.348 50.5371 224.168 51.1113C224.988 51.6855 225.615 52.4121 226.049 53.291C226.482 54.1582 226.699 55.1895 226.699 56.3848C226.699 57.4395 226.459 58.4121 225.979 59.3027C225.51 60.1934 224.766 60.9199 223.746 61.4824C222.738 62.0449 221.42 62.3555 219.791 62.4141L218.262 63.7676ZM218.033 75H210.246L212.303 70.8867H218.033C218.959 70.8867 219.715 70.7402 220.301 70.4473C220.887 70.1426 221.32 69.7324 221.602 69.2168C221.883 68.7012 222.023 68.1094 222.023 67.4414C222.023 66.6914 221.895 66.041 221.637 65.4902C221.391 64.9395 220.992 64.5176 220.441 64.2246C219.891 63.9199 219.164 63.7676 218.262 63.7676H213.182L213.217 60.1465H219.545L220.758 61.5703C222.316 61.5469 223.57 61.8223 224.52 62.3965C225.48 62.959 226.178 63.6914 226.611 64.5938C227.057 65.4961 227.279 66.4629 227.279 67.4941C227.279 69.1348 226.922 70.5176 226.207 71.6426C225.492 72.7559 224.443 73.5938 223.061 74.1562C221.689 74.7188 220.014 75 218.033 75ZM241.184 70.7109V62.2383C241.184 61.6289 241.084 61.1074 240.885 60.6738C240.686 60.2285 240.375 59.8828 239.953 59.6367C239.543 59.3906 239.01 59.2676 238.354 59.2676C237.791 59.2676 237.305 59.3672 236.895 59.5664C236.484 59.7539 236.168 60.0293 235.945 60.3926C235.723 60.7441 235.611 61.1602 235.611 61.6406H230.549C230.549 60.832 230.736 60.0645 231.111 59.3379C231.486 58.6113 232.031 57.9727 232.746 57.4219C233.461 56.8594 234.311 56.4199 235.295 56.1035C236.291 55.7871 237.404 55.6289 238.635 55.6289C240.111 55.6289 241.424 55.875 242.572 56.3672C243.721 56.8594 244.623 57.5977 245.279 58.582C245.947 59.5664 246.281 60.7969 246.281 62.2734V70.4121C246.281 71.4551 246.346 72.3105 246.475 72.9785C246.604 73.6348 246.791 74.209 247.037 74.7012V75H241.922C241.676 74.4844 241.488 73.8398 241.359 73.0664C241.242 72.2812 241.184 71.4961 241.184 70.7109ZM241.852 63.416L241.887 66.2812H239.057C238.389 66.2812 237.809 66.3574 237.316 66.5098C236.824 66.6621 236.42 66.8789 236.104 67.1602C235.787 67.4297 235.553 67.7461 235.4 68.1094C235.26 68.4727 235.189 68.8711 235.189 69.3047C235.189 69.7383 235.289 70.1309 235.488 70.4824C235.688 70.8223 235.975 71.0918 236.35 71.291C236.725 71.4785 237.164 71.5723 237.668 71.5723C238.43 71.5723 239.092 71.4199 239.654 71.1152C240.217 70.8105 240.65 70.4355 240.955 69.9902C241.271 69.5449 241.436 69.123 241.447 68.7246L242.783 70.8691C242.596 71.3496 242.338 71.8477 242.01 72.3633C241.693 72.8789 241.289 73.3652 240.797 73.8223C240.305 74.2676 239.713 74.6367 239.021 74.9297C238.33 75.2109 237.51 75.3516 236.561 75.3516C235.354 75.3516 234.258 75.1113 233.273 74.6309C232.301 74.1387 231.527 73.4648 230.953 72.6094C230.391 71.7422 230.109 70.7578 230.109 69.6562C230.109 68.6602 230.297 67.7754 230.672 67.002C231.047 66.2285 231.598 65.5781 232.324 65.0508C233.062 64.5117 233.982 64.1074 235.084 63.8379C236.186 63.5566 237.463 63.416 238.916 63.416H241.852ZM255.246 60.1289V75H250.184V55.9805H254.947L255.246 60.1289ZM260.977 55.8574L260.889 60.5508C260.643 60.5156 260.344 60.4863 259.992 60.4629C259.652 60.4277 259.342 60.4102 259.061 60.4102C258.346 60.4102 257.725 60.5039 257.197 60.6914C256.682 60.8672 256.248 61.1309 255.896 61.4824C255.557 61.834 255.299 62.2617 255.123 62.7656C254.959 63.2695 254.865 63.8438 254.842 64.4883L253.822 64.1719C253.822 62.9414 253.945 61.8105 254.191 60.7793C254.438 59.7363 254.795 58.8281 255.264 58.0547C255.744 57.2812 256.33 56.6836 257.021 56.2617C257.713 55.8398 258.504 55.6289 259.395 55.6289C259.676 55.6289 259.963 55.6523 260.256 55.6992C260.549 55.7344 260.789 55.7871 260.977 55.8574ZM273.035 70.7109V62.2383C273.035 61.6289 272.936 61.1074 272.736 60.6738C272.537 60.2285 272.227 59.8828 271.805 59.6367C271.395 59.3906 270.861 59.2676 270.205 59.2676C269.643 59.2676 269.156 59.3672 268.746 59.5664C268.336 59.7539 268.02 60.0293 267.797 60.3926C267.574 60.7441 267.463 61.1602 267.463 61.6406H262.4C262.4 60.832 262.588 60.0645 262.963 59.3379C263.338 58.6113 263.883 57.9727 264.598 57.4219C265.312 56.8594 266.162 56.4199 267.146 56.1035C268.143 55.7871 269.256 55.6289 270.486 55.6289C271.963 55.6289 273.275 55.875 274.424 56.3672C275.572 56.8594 276.475 57.5977 277.131 58.582C277.799 59.5664 278.133 60.7969 278.133 62.2734V70.4121C278.133 71.4551 278.197 72.3105 278.326 72.9785C278.455 73.6348 278.643 74.209 278.889 74.7012V75H273.773C273.527 74.4844 273.34 73.8398 273.211 73.0664C273.094 72.2812 273.035 71.4961 273.035 70.7109ZM273.703 63.416L273.738 66.2812H270.908C270.24 66.2812 269.66 66.3574 269.168 66.5098C268.676 66.6621 268.271 66.8789 267.955 67.1602C267.639 67.4297 267.404 67.7461 267.252 68.1094C267.111 68.4727 267.041 68.8711 267.041 69.3047C267.041 69.7383 267.141 70.1309 267.34 70.4824C267.539 70.8223 267.826 71.0918 268.201 71.291C268.576 71.4785 269.016 71.5723 269.52 71.5723C270.281 71.5723 270.943 71.4199 271.506 71.1152C272.068 70.8105 272.502 70.4355 272.807 69.9902C273.123 69.5449 273.287 69.123 273.299 68.7246L274.635 70.8691C274.447 71.3496 274.189 71.8477 273.861 72.3633C273.545 72.8789 273.141 73.3652 272.648 73.8223C272.156 74.2676 271.564 74.6367 270.873 74.9297C270.182 75.2109 269.361 75.3516 268.412 75.3516C267.205 75.3516 266.109 75.1113 265.125 74.6309C264.152 74.1387 263.379 73.4648 262.805 72.6094C262.242 71.7422 261.961 70.7578 261.961 69.6562C261.961 68.6602 262.148 67.7754 262.523 67.002C262.898 66.2285 263.449 65.5781 264.176 65.0508C264.914 64.5117 265.834 64.1074 266.936 63.8379C268.037 63.5566 269.314 63.416 270.768 63.416H273.703ZM287.098 47.9824V75H282.035V47.9824H287.098ZM299.086 55.9805L290.824 65.4023L286.395 69.8848L284.549 66.2285L288.064 61.7637L293.004 55.9805H299.086ZM293.83 75L288.205 66.2109L291.703 63.1523L299.666 75H293.83ZM311.531 70.7109V62.2383C311.531 61.6289 311.432 61.1074 311.232 60.6738C311.033 60.2285 310.723 59.8828 310.301 59.6367C309.891 59.3906 309.357 59.2676 308.701 59.2676C308.139 59.2676 307.652 59.3672 307.242 59.5664C306.832 59.7539 306.516 60.0293 306.293 60.3926C306.07 60.7441 305.959 61.1602 305.959 61.6406H300.896C300.896 60.832 301.084 60.0645 301.459 59.3379C301.834 58.6113 302.379 57.9727 303.094 57.4219C303.809 56.8594 304.658 56.4199 305.643 56.1035C306.639 55.7871 307.752 55.6289 308.982 55.6289C310.459 55.6289 311.771 55.875 312.92 56.3672C314.068 56.8594 314.971 57.5977 315.627 58.582C316.295 59.5664 316.629 60.7969 316.629 62.2734V70.4121C316.629 71.4551 316.693 72.3105 316.822 72.9785C316.951 73.6348 317.139 74.209 317.385 74.7012V75H312.27C312.023 74.4844 311.836 73.8398 311.707 73.0664C311.59 72.2812 311.531 71.4961 311.531 70.7109ZM312.199 63.416L312.234 66.2812H309.404C308.736 66.2812 308.156 66.3574 307.664 66.5098C307.172 66.6621 306.768 66.8789 306.451 67.1602C306.135 67.4297 305.9 67.7461 305.748 68.1094C305.607 68.4727 305.537 68.8711 305.537 69.3047C305.537 69.7383 305.637 70.1309 305.836 70.4824C306.035 70.8223 306.322 71.0918 306.697 71.291C307.072 71.4785 307.512 71.5723 308.016 71.5723C308.777 71.5723 309.439 71.4199 310.002 71.1152C310.564 70.8105 310.998 70.4355 311.303 69.9902C311.619 69.5449 311.783 69.123 311.795 68.7246L313.131 70.8691C312.943 71.3496 312.686 71.8477 312.357 72.3633C312.041 72.8789 311.637 73.3652 311.145 73.8223C310.652 74.2676 310.061 74.6367 309.369 74.9297C308.678 75.2109 307.857 75.3516 306.908 75.3516C305.701 75.3516 304.605 75.1113 303.621 74.6309C302.648 74.1387 301.875 73.4648 301.301 72.6094C300.738 71.7422 300.457 70.7578 300.457 69.6562C300.457 68.6602 300.645 67.7754 301.02 67.002C301.395 66.2285 301.945 65.5781 302.672 65.0508C303.41 64.5117 304.33 64.1074 305.432 63.8379C306.533 63.5566 307.811 63.416 309.264 63.416H312.199ZM329.848 55.9805V59.5664H318.773V55.9805H329.848ZM321.516 51.2871H326.578V69.2695C326.578 69.8203 326.648 70.2422 326.789 70.5352C326.941 70.8281 327.164 71.0332 327.457 71.1504C327.75 71.2559 328.119 71.3086 328.564 71.3086C328.881 71.3086 329.162 71.2969 329.408 71.2734C329.666 71.2383 329.883 71.2031 330.059 71.168L330.076 74.8945C329.643 75.0352 329.174 75.1465 328.67 75.2285C328.166 75.3105 327.609 75.3516 327 75.3516C325.887 75.3516 324.914 75.1699 324.082 74.8066C323.262 74.4316 322.629 73.834 322.184 73.0137C321.738 72.1934 321.516 71.1152 321.516 69.7793V51.2871Z" fill="#888888"/>
<path d="M100.793 100.188H108.613L117.5 127.887L126.387 100.188H134.207L120.672 140H114.328L100.793 100.188ZM96.0352 100.188H104.129L105.633 130.703V140H96.0352V100.188ZM130.871 100.188H138.992V140H129.367V130.703L130.871 100.188ZM153.785 136.527L161.441 110.414H171.34L159.445 144.402C159.19 145.15 158.853 145.952 158.434 146.809C158.014 147.684 157.44 148.513 156.711 149.297C155.982 150.081 155.043 150.719 153.895 151.211C152.764 151.703 151.361 151.949 149.684 151.949C148.79 151.949 148.134 151.904 147.715 151.812C147.314 151.74 146.694 151.603 145.855 151.402V144.812C146.092 144.812 146.293 144.812 146.457 144.812C146.639 144.812 146.84 144.812 147.059 144.812C148.043 144.812 148.827 144.712 149.41 144.512C150.012 144.311 150.467 144.02 150.777 143.637C151.105 143.254 151.361 142.789 151.543 142.242L153.785 136.527ZM151.844 110.414L157.668 131.113L158.68 140.875H152.5L141.973 110.414H151.844ZM193.461 100.188V140H183.863V100.188H193.461ZM205.438 100.188V107.598H172.16V100.188H205.438ZM218.809 110.414V140H209.566V110.414H218.809ZM209.02 102.785C209.02 101.473 209.493 100.397 210.441 99.5586C211.389 98.7201 212.62 98.3008 214.133 98.3008C215.646 98.3008 216.876 98.7201 217.824 99.5586C218.772 100.397 219.246 101.473 219.246 102.785C219.246 104.098 218.772 105.173 217.824 106.012C216.876 106.85 215.646 107.27 214.133 107.27C212.62 107.27 211.389 106.85 210.441 106.012C209.493 105.173 209.02 104.098 209.02 102.785ZM233.793 116.676V140H224.578V110.414H233.219L233.793 116.676ZM232.672 124.195L230.566 124.25C230.566 122.172 230.812 120.258 231.305 118.508C231.797 116.758 232.526 115.236 233.492 113.941C234.458 112.647 235.643 111.645 237.047 110.934C238.469 110.223 240.109 109.867 241.969 109.867C243.263 109.867 244.439 110.068 245.496 110.469C246.553 110.852 247.465 111.462 248.23 112.301C248.996 113.121 249.579 114.197 249.98 115.527C250.4 116.84 250.609 118.417 250.609 120.258V140H241.395V121.434C241.395 120.176 241.249 119.228 240.957 118.59C240.684 117.952 240.283 117.523 239.754 117.305C239.225 117.086 238.578 116.977 237.812 116.977C237.01 116.977 236.29 117.159 235.652 117.523C235.014 117.888 234.467 118.398 234.012 119.055C233.574 119.693 233.237 120.449 233 121.324C232.781 122.199 232.672 123.156 232.672 124.195ZM249.57 124.195L247 124.25C247 122.172 247.228 120.258 247.684 118.508C248.158 116.758 248.859 115.236 249.789 113.941C250.737 112.647 251.913 111.645 253.316 110.934C254.72 110.223 256.352 109.867 258.211 109.867C259.56 109.867 260.799 110.068 261.93 110.469C263.06 110.87 264.035 111.517 264.855 112.41C265.676 113.303 266.314 114.488 266.77 115.965C267.225 117.423 267.453 119.228 267.453 121.379V140H258.211V121.379C258.211 120.158 258.065 119.237 257.773 118.617C257.5 117.979 257.099 117.551 256.57 117.332C256.042 117.095 255.413 116.977 254.684 116.977C253.809 116.977 253.052 117.159 252.414 117.523C251.776 117.888 251.238 118.398 250.801 119.055C250.382 119.693 250.072 120.449 249.871 121.324C249.671 122.199 249.57 123.156 249.57 124.195ZM287.059 140.547C284.652 140.547 282.501 140.173 280.605 139.426C278.71 138.66 277.105 137.612 275.793 136.281C274.499 134.951 273.505 133.419 272.812 131.688C272.138 129.956 271.801 128.124 271.801 126.191V125.152C271.801 122.983 272.102 120.978 272.703 119.137C273.305 117.277 274.198 115.655 275.383 114.27C276.568 112.884 278.053 111.809 279.84 111.043C281.626 110.259 283.704 109.867 286.074 109.867C288.171 109.867 290.048 110.204 291.707 110.879C293.366 111.553 294.77 112.52 295.918 113.777C297.085 115.035 297.969 116.557 298.57 118.344C299.19 120.13 299.5 122.135 299.5 124.359V128.105H275.328V122.336H290.504V121.625C290.522 120.641 290.349 119.802 289.984 119.109C289.638 118.417 289.128 117.888 288.453 117.523C287.779 117.159 286.958 116.977 285.992 116.977C284.99 116.977 284.16 117.195 283.504 117.633C282.866 118.07 282.365 118.672 282 119.438C281.654 120.185 281.408 121.051 281.262 122.035C281.116 123.02 281.043 124.059 281.043 125.152V126.191C281.043 127.285 281.189 128.279 281.48 129.172C281.79 130.065 282.228 130.831 282.793 131.469C283.376 132.089 284.069 132.572 284.871 132.918C285.691 133.264 286.621 133.438 287.66 133.438C288.918 133.438 290.158 133.201 291.379 132.727C292.6 132.253 293.648 131.469 294.523 130.375L298.707 135.352C298.105 136.208 297.249 137.038 296.137 137.84C295.043 138.642 293.73 139.298 292.199 139.809C290.668 140.301 288.954 140.547 287.059 140.547ZM337.371 119.301V120.914C337.371 123.958 336.943 126.693 336.086 129.117C335.247 131.523 334.053 133.583 332.504 135.297C330.954 136.992 329.122 138.296 327.008 139.207C324.893 140.1 322.56 140.547 320.008 140.547C317.438 140.547 315.086 140.1 312.953 139.207C310.839 138.296 308.997 136.992 307.43 135.297C305.88 133.583 304.677 131.523 303.82 129.117C302.982 126.693 302.562 123.958 302.562 120.914V119.301C302.562 116.257 302.982 113.522 303.82 111.098C304.677 108.673 305.871 106.613 307.402 104.918C308.952 103.204 310.784 101.901 312.898 101.008C315.031 100.096 317.383 99.6406 319.953 99.6406C322.505 99.6406 324.839 100.096 326.953 101.008C329.086 101.901 330.927 103.204 332.477 104.918C334.026 106.613 335.229 108.673 336.086 111.098C336.943 113.522 337.371 116.257 337.371 119.301ZM327.637 120.914V119.246C327.637 117.277 327.464 115.546 327.117 114.051C326.789 112.538 326.297 111.271 325.641 110.25C324.984 109.229 324.173 108.464 323.207 107.953C322.259 107.424 321.174 107.16 319.953 107.16C318.677 107.16 317.565 107.424 316.617 107.953C315.669 108.464 314.876 109.229 314.238 110.25C313.6 111.271 313.117 112.538 312.789 114.051C312.479 115.546 312.324 117.277 312.324 119.246V120.914C312.324 122.865 312.479 124.596 312.789 126.109C313.117 127.604 313.6 128.871 314.238 129.91C314.895 130.949 315.697 131.733 316.645 132.262C317.611 132.79 318.732 133.055 320.008 133.055C321.229 133.055 322.314 132.79 323.262 132.262C324.21 131.733 325.003 130.949 325.641 129.91C326.297 128.871 326.789 127.604 327.117 126.109C327.464 124.596 327.637 122.865 327.637 120.914ZM353.203 140H343.934V108.008C343.934 105.711 344.398 103.779 345.328 102.211C346.258 100.643 347.57 99.4583 349.266 98.6562C350.961 97.8359 352.966 97.4258 355.281 97.4258C356.083 97.4258 356.84 97.4805 357.551 97.5898C358.262 97.6992 358.954 97.8359 359.629 98L359.656 104.781C359.328 104.69 358.991 104.626 358.645 104.59C358.298 104.553 357.87 104.535 357.359 104.535C356.466 104.535 355.71 104.672 355.09 104.945C354.47 105.201 353.996 105.592 353.668 106.121C353.358 106.632 353.203 107.26 353.203 108.008V140ZM358.945 110.414V116.812H339.668V110.414H358.945ZM373.547 140H364.277V108.008C364.277 105.711 364.742 103.779 365.672 102.211C366.602 100.643 367.914 99.4583 369.609 98.6562C371.305 97.8359 373.31 97.4258 375.625 97.4258C376.427 97.4258 377.184 97.4805 377.895 97.5898C378.605 97.6992 379.298 97.8359 379.973 98L380 104.781C379.672 104.69 379.335 104.626 378.988 104.59C378.642 104.553 378.214 104.535 377.703 104.535C376.81 104.535 376.053 104.672 375.434 104.945C374.814 105.201 374.34 105.592 374.012 106.121C373.702 106.632 373.547 107.26 373.547 108.008V140ZM379.289 110.414V116.812H360.012V110.414H379.289Z" fill="black"/>
<rect x="93" y="178" width="1214" height="77" rx="10" fill="#D3D3D3"/>
<rect x="111" y="196" width="115" height="41" rx="3" fill="#424242"/>
<path d="M134.126 210.203H139.162C140.146 210.203 141.002 210.35 141.729 210.643C142.455 210.936 143.015 211.369 143.407 211.943C143.806 212.518 144.005 213.227 144.005 214.07C144.005 214.803 143.891 215.415 143.662 215.907C143.434 216.399 143.114 216.807 142.704 217.129C142.3 217.445 141.828 217.706 141.289 217.911L140.278 218.482H136.051L136.033 216.101H139.162C139.555 216.101 139.88 216.03 140.138 215.89C140.396 215.749 140.589 215.55 140.718 215.292C140.853 215.028 140.92 214.715 140.92 214.352C140.92 213.982 140.853 213.666 140.718 213.402C140.583 213.139 140.384 212.937 140.12 212.796C139.862 212.655 139.543 212.585 139.162 212.585H137.211V223H134.126V210.203ZM141.131 223L138.301 217.34L141.57 217.322L144.436 222.868V223H141.131ZM150.333 223.176C149.56 223.176 148.868 223.056 148.259 222.815C147.649 222.569 147.134 222.232 146.712 221.805C146.296 221.377 145.977 220.885 145.754 220.328C145.537 219.771 145.429 219.183 145.429 218.562V218.228C145.429 217.53 145.525 216.886 145.719 216.294C145.912 215.696 146.199 215.175 146.58 214.729C146.961 214.284 147.438 213.938 148.013 213.692C148.587 213.44 149.255 213.314 150.017 213.314C150.69 213.314 151.294 213.423 151.827 213.64C152.36 213.856 152.812 214.167 153.181 214.571C153.556 214.976 153.84 215.465 154.033 216.039C154.232 216.613 154.332 217.258 154.332 217.973V219.177H146.562V217.322H151.44V217.094C151.446 216.777 151.391 216.508 151.273 216.285C151.162 216.062 150.998 215.893 150.781 215.775C150.564 215.658 150.301 215.6 149.99 215.6C149.668 215.6 149.401 215.67 149.19 215.811C148.985 215.951 148.824 216.145 148.707 216.391C148.596 216.631 148.517 216.909 148.47 217.226C148.423 217.542 148.399 217.876 148.399 218.228V218.562C148.399 218.913 148.446 219.232 148.54 219.52C148.64 219.807 148.78 220.053 148.962 220.258C149.149 220.457 149.372 220.612 149.63 220.724C149.894 220.835 150.192 220.891 150.526 220.891C150.931 220.891 151.329 220.814 151.722 220.662C152.114 220.51 152.451 220.258 152.732 219.906L154.077 221.506C153.884 221.781 153.608 222.048 153.251 222.306C152.899 222.563 152.478 222.774 151.985 222.938C151.493 223.097 150.942 223.176 150.333 223.176ZM160.476 220.609V216.689C160.476 216.42 160.438 216.188 160.361 215.995C160.285 215.802 160.165 215.652 160.001 215.547C159.837 215.436 159.617 215.38 159.342 215.38C159.119 215.38 158.929 215.418 158.771 215.494C158.612 215.57 158.492 215.685 158.41 215.837C158.328 215.989 158.287 216.183 158.287 216.417H155.325C155.325 215.978 155.422 215.57 155.615 215.195C155.814 214.814 156.096 214.483 156.459 214.202C156.828 213.921 157.268 213.704 157.777 213.552C158.293 213.394 158.867 213.314 159.5 213.314C160.256 213.314 160.93 213.44 161.521 213.692C162.119 213.944 162.591 214.322 162.937 214.826C163.282 215.324 163.455 215.951 163.455 216.707V220.601C163.455 221.222 163.49 221.693 163.561 222.016C163.631 222.332 163.73 222.61 163.859 222.851V223H160.889C160.748 222.707 160.643 222.35 160.572 221.928C160.508 221.5 160.476 221.061 160.476 220.609ZM160.836 217.19L160.854 218.772H159.544C159.269 218.772 159.034 218.811 158.841 218.887C158.653 218.963 158.501 219.068 158.384 219.203C158.272 219.332 158.19 219.479 158.138 219.643C158.091 219.807 158.067 219.979 158.067 220.161C158.067 220.337 158.108 220.495 158.19 220.636C158.278 220.771 158.396 220.876 158.542 220.952C158.688 221.028 158.853 221.066 159.034 221.066C159.362 221.066 159.641 221.005 159.869 220.882C160.104 220.753 160.282 220.598 160.405 220.416C160.528 220.234 160.59 220.064 160.59 219.906L161.24 221.119C161.123 221.354 160.988 221.591 160.836 221.831C160.689 222.071 160.505 222.294 160.282 222.499C160.065 222.698 159.799 222.862 159.482 222.991C159.166 223.114 158.782 223.176 158.331 223.176C157.745 223.176 157.206 223.056 156.714 222.815C156.228 222.575 155.838 222.241 155.545 221.813C155.252 221.38 155.105 220.882 155.105 220.319C155.105 219.827 155.193 219.388 155.369 219.001C155.551 218.614 155.823 218.286 156.187 218.017C156.55 217.747 157.013 217.542 157.575 217.401C158.138 217.261 158.8 217.19 159.562 217.19H160.836ZM169.115 220.891C169.391 220.891 169.625 220.841 169.818 220.741C170.018 220.636 170.167 220.489 170.267 220.302C170.372 220.108 170.422 219.877 170.416 219.607H173.202C173.208 220.322 173.032 220.949 172.675 221.488C172.323 222.021 171.843 222.438 171.233 222.736C170.63 223.029 169.947 223.176 169.186 223.176C168.441 223.176 167.791 223.056 167.234 222.815C166.678 222.569 166.212 222.229 165.837 221.796C165.468 221.356 165.189 220.844 165.002 220.258C164.82 219.672 164.729 219.036 164.729 218.351V218.148C164.729 217.463 164.82 216.827 165.002 216.241C165.189 215.649 165.468 215.137 165.837 214.703C166.212 214.264 166.675 213.924 167.226 213.684C167.782 213.438 168.43 213.314 169.168 213.314C169.959 213.314 170.656 213.464 171.26 213.763C171.869 214.062 172.347 214.495 172.692 215.063C173.038 215.632 173.208 216.32 173.202 217.129H170.416C170.422 216.842 170.378 216.584 170.284 216.355C170.19 216.127 170.044 215.945 169.845 215.811C169.651 215.67 169.402 215.6 169.098 215.6C168.793 215.6 168.547 215.667 168.359 215.802C168.172 215.937 168.028 216.124 167.929 216.364C167.835 216.599 167.771 216.868 167.735 217.173C167.706 217.478 167.691 217.803 167.691 218.148V218.351C167.691 218.702 167.706 219.033 167.735 219.344C167.771 219.648 167.838 219.918 167.938 220.152C168.037 220.381 168.181 220.562 168.368 220.697C168.556 220.826 168.805 220.891 169.115 220.891ZM179.478 213.49V215.547H173.747V213.49H179.478ZM174.951 211.126H177.913V219.897C177.913 220.149 177.942 220.346 178.001 220.486C178.06 220.621 178.159 220.718 178.3 220.776C178.446 220.829 178.64 220.855 178.88 220.855C179.05 220.855 179.19 220.853 179.302 220.847C179.413 220.835 179.519 220.82 179.618 220.803V222.921C179.366 223.003 179.103 223.064 178.827 223.105C178.552 223.152 178.259 223.176 177.948 223.176C177.315 223.176 176.773 223.076 176.322 222.877C175.877 222.678 175.537 222.364 175.303 221.937C175.068 221.509 174.951 220.952 174.951 220.267V211.126ZM185.331 221.611C185.331 221.189 185.483 220.838 185.788 220.557C186.093 220.27 186.485 220.126 186.966 220.126C187.452 220.126 187.845 220.27 188.144 220.557C188.448 220.838 188.601 221.189 188.601 221.611C188.601 222.033 188.448 222.388 188.144 222.675C187.845 222.956 187.452 223.097 186.966 223.097C186.485 223.097 186.093 222.956 185.788 222.675C185.483 222.388 185.331 222.033 185.331 221.611ZM190.807 213.49H193.777V223.308C193.777 224.069 193.631 224.711 193.338 225.232C193.045 225.76 192.626 226.158 192.081 226.428C191.536 226.703 190.886 226.841 190.13 226.841C189.878 226.841 189.646 226.829 189.436 226.806C189.219 226.788 188.981 226.75 188.724 226.691V224.45C188.876 224.474 189.017 224.491 189.146 224.503C189.274 224.521 189.415 224.529 189.567 224.529C189.837 224.529 190.062 224.485 190.244 224.397C190.426 224.31 190.563 224.175 190.657 223.993C190.757 223.812 190.807 223.583 190.807 223.308V213.49ZM190.587 211.038C190.587 210.616 190.739 210.271 191.044 210.001C191.349 209.731 191.744 209.597 192.23 209.597C192.717 209.597 193.112 209.731 193.417 210.001C193.722 210.271 193.874 210.616 193.874 211.038C193.874 211.46 193.722 211.806 193.417 212.075C193.112 212.345 192.717 212.479 192.23 212.479C191.744 212.479 191.349 212.345 191.044 212.075C190.739 211.806 190.587 211.46 190.587 211.038ZM200.439 220.328C200.439 220.164 200.384 220.023 200.272 219.906C200.167 219.783 199.979 219.672 199.71 219.572C199.44 219.467 199.062 219.361 198.576 219.256C198.113 219.156 197.677 219.024 197.267 218.86C196.862 218.696 196.508 218.497 196.203 218.263C195.898 218.028 195.658 217.75 195.482 217.428C195.312 217.105 195.228 216.736 195.228 216.32C195.228 215.916 195.312 215.535 195.482 215.178C195.658 214.814 195.913 214.495 196.247 214.22C196.587 213.938 197 213.719 197.486 213.561C197.973 213.396 198.526 213.314 199.147 213.314C200.003 213.314 200.741 213.446 201.362 213.71C201.983 213.968 202.461 214.331 202.795 214.8C203.135 215.263 203.305 215.799 203.305 216.408H200.343C200.343 216.168 200.302 215.963 200.22 215.793C200.144 215.623 200.018 215.494 199.842 215.406C199.666 215.312 199.432 215.266 199.139 215.266C198.934 215.266 198.746 215.304 198.576 215.38C198.412 215.456 198.28 215.562 198.181 215.696C198.081 215.831 198.031 215.989 198.031 216.171C198.031 216.3 198.061 216.417 198.119 216.522C198.184 216.622 198.28 216.716 198.409 216.804C198.538 216.886 198.702 216.962 198.901 217.032C199.101 217.097 199.341 217.155 199.622 217.208C200.261 217.325 200.858 217.492 201.415 217.709C201.972 217.926 202.423 218.233 202.769 218.632C203.12 219.03 203.296 219.566 203.296 220.24C203.296 220.662 203.199 221.052 203.006 221.409C202.812 221.761 202.534 222.071 202.171 222.341C201.808 222.604 201.371 222.81 200.861 222.956C200.352 223.103 199.777 223.176 199.139 223.176C198.23 223.176 197.463 223.015 196.836 222.692C196.209 222.364 195.734 221.954 195.412 221.462C195.096 220.964 194.938 220.46 194.938 219.95H197.697C197.709 220.243 197.779 220.483 197.908 220.671C198.043 220.858 198.222 220.996 198.444 221.084C198.667 221.172 198.925 221.216 199.218 221.216C199.487 221.216 199.71 221.178 199.886 221.102C200.067 221.025 200.205 220.923 200.299 220.794C200.393 220.659 200.439 220.504 200.439 220.328Z" fill="white"/>
<rect x="111" y="196" width="115" height="41" rx="3" stroke="#424242" stroke-width="4"/>
<rect x="246" y="196" width="130" height="41" rx="3" fill="#424242"/>
<path d="M308.117 218.667H311.193C311.152 219.558 310.912 220.343 310.473 221.022C310.033 221.702 309.424 222.232 308.645 222.613C307.871 222.988 306.957 223.176 305.902 223.176C305.047 223.176 304.282 223.032 303.608 222.745C302.94 222.458 302.372 222.045 301.903 221.506C301.44 220.967 301.086 220.313 300.84 219.546C300.6 218.778 300.479 217.914 300.479 216.953V216.259C300.479 215.298 300.605 214.434 300.857 213.666C301.115 212.893 301.479 212.236 301.947 211.697C302.422 211.152 302.99 210.736 303.652 210.449C304.314 210.162 305.05 210.019 305.858 210.019C306.972 210.019 307.912 210.218 308.68 210.616C309.447 211.015 310.042 211.562 310.464 212.26C310.886 212.951 311.135 213.739 311.211 214.624H308.135C308.123 214.144 308.041 213.742 307.889 213.42C307.736 213.092 307.496 212.846 307.168 212.682C306.84 212.518 306.403 212.436 305.858 212.436C305.478 212.436 305.146 212.506 304.865 212.646C304.584 212.787 304.35 213.01 304.162 213.314C303.975 213.619 303.834 214.015 303.74 214.501C303.652 214.981 303.608 215.562 303.608 216.241V216.953C303.608 217.633 303.649 218.213 303.731 218.693C303.813 219.174 303.945 219.566 304.127 219.871C304.309 220.176 304.543 220.401 304.83 220.548C305.123 220.688 305.48 220.759 305.902 220.759C306.371 220.759 306.767 220.686 307.089 220.539C307.411 220.387 307.66 220.158 307.836 219.854C308.012 219.543 308.105 219.147 308.117 218.667ZM313.303 223L315.412 210.203H317.152L315.052 223H313.303ZM316.467 223L318.576 210.203H320.325L318.216 223H316.467ZM321.749 215.468H312.6V213.859H321.749V215.468ZM321.081 219.396H311.94V217.788H321.081V219.396Z" fill="white"/>
<rect x="246" y="196" width="130" height="41" rx="3" stroke="#424242" stroke-width="4"/>
<rect x="396" y="196" width="103" height="41" rx="3" fill="#424242"/>
<path d="M420.72 210.203H423.233L426.09 219.106L428.946 210.203H431.46L427.109 223H425.07L420.72 210.203ZM419.19 210.203H421.792L422.275 220.012V223H419.19V210.203ZM430.388 210.203H432.998V223H429.904V220.012L430.388 210.203ZM437.753 221.884L440.214 213.49H443.396L439.572 224.415C439.49 224.655 439.382 224.913 439.247 225.188C439.112 225.47 438.928 225.736 438.693 225.988C438.459 226.24 438.157 226.445 437.788 226.604C437.425 226.762 436.974 226.841 436.435 226.841C436.147 226.841 435.937 226.826 435.802 226.797C435.673 226.773 435.474 226.729 435.204 226.665V224.547C435.28 224.547 435.345 224.547 435.397 224.547C435.456 224.547 435.521 224.547 435.591 224.547C435.907 224.547 436.159 224.515 436.347 224.45C436.54 224.386 436.687 224.292 436.786 224.169C436.892 224.046 436.974 223.896 437.032 223.721L437.753 221.884ZM437.129 213.49L439.001 220.144L439.326 223.281H437.34L433.956 213.49H437.129ZM450.901 219.599C450.901 219.399 450.872 219.221 450.813 219.062C450.755 218.898 450.646 218.746 450.488 218.605C450.33 218.465 450.102 218.324 449.803 218.184C449.51 218.037 449.123 217.885 448.643 217.727C448.08 217.539 447.538 217.328 447.017 217.094C446.495 216.854 446.029 216.575 445.619 216.259C445.209 215.937 444.884 215.562 444.644 215.134C444.403 214.7 444.283 214.196 444.283 213.622C444.283 213.071 444.406 212.576 444.652 212.137C444.898 211.691 445.241 211.313 445.681 211.003C446.126 210.687 446.647 210.446 447.245 210.282C447.843 210.112 448.496 210.027 449.205 210.027C450.143 210.027 450.969 210.191 451.684 210.52C452.404 210.842 452.967 211.302 453.371 211.899C453.781 212.491 453.986 213.191 453.986 214H450.919C450.919 213.678 450.852 213.394 450.717 213.147C450.588 212.901 450.392 212.708 450.128 212.567C449.864 212.427 449.533 212.356 449.135 212.356C448.748 212.356 448.423 212.415 448.159 212.532C447.896 212.649 447.696 212.808 447.562 213.007C447.427 213.2 447.359 213.414 447.359 213.648C447.359 213.842 447.412 214.018 447.518 214.176C447.629 214.328 447.784 214.472 447.983 214.606C448.188 214.741 448.435 214.87 448.722 214.993C449.015 215.116 449.343 215.236 449.706 215.354C450.386 215.57 450.989 215.813 451.517 216.083C452.05 216.347 452.498 216.648 452.861 216.988C453.23 217.322 453.509 217.703 453.696 218.131C453.89 218.559 453.986 219.042 453.986 219.581C453.986 220.155 453.875 220.665 453.652 221.11C453.43 221.556 453.11 221.934 452.694 222.244C452.278 222.549 451.78 222.78 451.2 222.938C450.62 223.097 449.973 223.176 449.258 223.176C448.602 223.176 447.954 223.094 447.315 222.93C446.683 222.76 446.108 222.502 445.593 222.156C445.077 221.805 444.664 221.356 444.354 220.812C444.049 220.261 443.896 219.607 443.896 218.852H446.99C446.99 219.227 447.04 219.543 447.14 219.801C447.239 220.059 447.386 220.267 447.579 220.425C447.772 220.577 448.01 220.688 448.291 220.759C448.572 220.823 448.895 220.855 449.258 220.855C449.65 220.855 449.967 220.8 450.207 220.688C450.447 220.571 450.623 220.419 450.734 220.231C450.846 220.038 450.901 219.827 450.901 219.599ZM462.714 220.891L466.282 223.721L464.366 225.338L460.859 222.508L462.714 220.891ZM466.432 216.347V216.865C466.432 217.844 466.294 218.723 466.019 219.502C465.749 220.275 465.362 220.938 464.858 221.488C464.36 222.033 463.771 222.452 463.092 222.745C462.412 223.032 461.662 223.176 460.842 223.176C460.016 223.176 459.26 223.032 458.574 222.745C457.895 222.452 457.303 222.033 456.799 221.488C456.301 220.938 455.914 220.275 455.639 219.502C455.369 218.723 455.234 217.844 455.234 216.865V216.347C455.234 215.368 455.369 214.489 455.639 213.71C455.914 212.931 456.298 212.269 456.79 211.724C457.288 211.173 457.877 210.754 458.557 210.467C459.242 210.174 459.998 210.027 460.824 210.027C461.645 210.027 462.395 210.174 463.074 210.467C463.76 210.754 464.352 211.173 464.85 211.724C465.354 212.269 465.743 212.931 466.019 213.71C466.294 214.489 466.432 215.368 466.432 216.347ZM463.294 216.865V216.329C463.294 215.696 463.238 215.14 463.127 214.659C463.021 214.173 462.863 213.766 462.652 213.438C462.441 213.109 462.181 212.863 461.87 212.699C461.565 212.529 461.217 212.444 460.824 212.444C460.414 212.444 460.057 212.529 459.752 212.699C459.447 212.863 459.192 213.109 458.987 213.438C458.782 213.766 458.627 214.173 458.521 214.659C458.422 215.14 458.372 215.696 458.372 216.329V216.865C458.372 217.492 458.422 218.049 458.521 218.535C458.627 219.016 458.782 219.423 458.987 219.757C459.198 220.091 459.456 220.343 459.761 220.513C460.071 220.683 460.432 220.768 460.842 220.768C461.234 220.768 461.583 220.683 461.888 220.513C462.192 220.343 462.447 220.091 462.652 219.757C462.863 219.423 463.021 219.016 463.127 218.535C463.238 218.049 463.294 217.492 463.294 216.865ZM476.46 220.627V223H469.991V220.627H476.46ZM471.09 210.203V223H468.005V210.203H471.09Z" fill="white"/>
<rect x="396" y="196" width="103" height="41" rx="3" stroke="#424242" stroke-width="4"/>
</svg>
